<?xml version="1.0" encoding="iso-8859-1"?>
<!-- Generator: Adobe Illustrator 19.0.0, SVG Export Plug-In . SVG Version: 6.00 Build 0)  -->
<svg version="1.1" id="Capa_1" xmlns="http://www.w3.org/2000/svg" xmlns:xlink="http://www.w3.org/1999/xlink" x="0px" y="0px"
	 viewBox="0 0 512 512" style="enable-background:new 0 0 512 512;" xml:space="preserve">
<g>
	<g>
		<path d="M467.001,301.993h-19.57c1.664-4.694,2.57-9.743,2.57-15c0-24.813-20.187-44.999-44.999-44.999h-15.631
			c0.415-5.032,0.631-10.034,0.631-15c0-57.837-28.041-113.628-63.167-158.709c-30.729-39.439-61.178-63.974-62.459-64.999
			c-5.276-4.221-12.789-4.376-18.242-0.385c-1.192,0.875-29.552,21.814-59.119,56.012c-36.596,42.328-58.829,86.596-64.782,128.748
			C47.277,207.839-7.23,279.14,0.781,363.151c8.107,85,83.828,148.838,170.672,148.838h173.55c24.813,0,44.999-20.187,44.999-44.999
			c0-5.258-0.915-10.305-2.58-15h17.58c24.813,0,44.999-20.187,44.999-44.999c0-5.257-0.906-10.306-2.57-15h19.57
			c24.813,0,44.999-20.187,44.999-44.999S491.814,301.993,467.001,301.993z M384.537,271.994h20.466c8.271,0,15,6.729,15,15
			c0,8.271-6.729,15-15,15h-29.816C379.051,291.947,382.175,281.934,384.537,271.994z M270.005,49.261
			c11.072,11.165,24.618,26.055,37.81,43.711l-37.81,37.81V49.261z M270.005,256.959c18.207-13.697,29.999-35.478,29.999-59.964
			c0-8.284-6.716-15-15-15h-15v-8.787l55.014-55.014c14.049,22.759,25.984,48.561,31.578,75.993l-86.592,86.594V256.959z
			 M270.005,323.206l89.86-89.86c-3.018,73.099-57.259,137.498-89.86,169.811V323.206z M240.005,47.365
			c0,20.837,0,118.483,0,134.631h-74.999c-3.83,0-7.646,0.134-11.443,0.4C165.579,124.022,211.331,73.918,240.005,47.365z
			 M345.002,481.99h-173.55c-72.45,0-134.301-53.451-140.808-121.687c-7.804-81.84,56.699-148.408,134.362-148.408h102.428
			c-6.19,17.461-22.873,30.099-42.429,30.099h-88.791c-4.189,0-8.188,1.752-11.028,4.833c-2.841,3.081-4.263,7.209-3.922,11.385
			c3.657,44.897,26.563,92.244,66.24,136.922c28.586,32.187,55.965,52.051,58.659,53.976c2.435,1.779,5.424,2.843,8.661,2.881
			c0.021-0.001,0.023,0,0.035,0c0.01,0,0.018,0,0.029,0c0.01,0,0.017,0,0.027,0c0.012,0,0.025,0,0.042,0c0.01,0,0.02,0,0.03,0
			c0.006,0,0.015,0.001,0.02,0h89.995c8.271,0,15,6.729,15,15C360.002,475.261,353.273,481.99,345.002,481.99z M240.005,270.487
			v134.797c-28.773-25.853-74.926-75.082-86.554-133.29h71.554C230.142,271.994,235.156,271.476,240.005,270.487z M405.002,421.991
			c-11.712,0-99.713,0-111.284,0c8.278-8.321,17.652-18.409,27.229-30h84.056c8.271,0,15,6.729,15,15
			C420.002,415.262,413.273,421.991,405.002,421.991z M467.001,361.992H343.434c6.724-9.967,12.745-19.979,18.045-29.999h105.522
			c8.271,0,15,6.729,15,15C482.001,355.263,475.272,361.992,467.001,361.992z"/>
	</g>
</g>
<g>
</g>
<g>
</g>
<g>
</g>
<g>
</g>
<g>
</g>
<g>
</g>
<g>
</g>
<g>
</g>
<g>
</g>
<g>
</g>
<g>
</g>
<g>
</g>
<g>
</g>
<g>
</g>
<g>
</g>
</svg>
