<?xml version="1.0" encoding="utf-8"?>
<!-- Generator: Adobe Illustrator 21.0.2, SVG Export Plug-In . SVG Version: 6.00 Build 0)  -->
<svg version="1.1" id="Layer_1" xmlns="http://www.w3.org/2000/svg" xmlns:xlink="http://www.w3.org/1999/xlink" x="0px" y="0px"
	 viewBox="0 0 900 900" style="enable-background:new 0 0 900 900;" xml:space="preserve">
<style type="text/css">
	.st0{display:none;fill:#3D3849;}
	.st1{fill:#FBBD30;}
	.st2{opacity:0.3;fill:#CC6A21;stroke:#CC6A21;stroke-miterlimit:10;}
	.st3{opacity:0.2;fill:#CC6A21;stroke:#CC6A21;stroke-miterlimit:10;}
	.st4{fill:#FFCD5F;stroke:#FFCD5F;stroke-miterlimit:10;}
	.st5{opacity:0.7;fill:#FFFFFF;}
	.st6{fill:url(#SVGID_1_);}
	.st7{opacity:0.6;}
	.st8{fill:#7C708E;}
	.st9{fill:#414042;}
	.st10{fill:#6D6E71;}
	.st11{fill:#9B9B9B;}
	.st12{fill:#323133;}
	.st13{fill:#ED3C2F;}
	.st14{opacity:0.4;fill:#3D3839;}
	.st15{fill:#494546;}
	.st16{opacity:0.3;fill:#231F20;}
	.st17{opacity:0.5;fill:#231F20;}
	.st18{fill:#F1F2F2;}
	.st19{fill:#BCBEC0;}
	.st20{opacity:0.5;}
	.st21{fill:#7D3315;}
	.st22{fill:#5B1F0A;}
	.st23{fill:#231F20;}
	.st24{opacity:0.6;fill:#4F4D51;}
	.st25{fill:#FFA969;}
	.st26{fill:#00A79D;}
	.st27{opacity:0.2;fill:#231F20;}
	.st28{fill:url(#SVGID_2_);}
	.st29{fill:#FF8A54;}
	.st30{fill:#7F2C08;}
	.st31{fill:#FFFFFF;}
	.st32{fill:#58595B;}
	.st33{fill:#4F4D51;}
	.st34{fill:none;stroke:#323133;stroke-width:2;stroke-linecap:round;stroke-miterlimit:10;}
	.st35{opacity:0.4;fill:#FFFFFF;}
	.st36{opacity:0.4;fill:#83709B;}
	.st37{opacity:0.7;fill:#F1F2F2;}
	.st38{opacity:0.5;fill:none;stroke:#D8712B;stroke-width:7;stroke-miterlimit:10;}
</style>
<rect x="-1" y="-1" class="st0" width="901" height="901"/>
<path class="st1" d="M901.7,900H63.1C42.3,835.5,31,766.6,31,695.1C31,326.9,329.5,28.4,697.8,28.4c70.8,0,140,11,204,31.5V900z"/>
<path class="st2" d="M281.7,280.1l620,521.7V830l-364,70H63.1C42.3,835.5,31,766.6,31,695.1c0-183.4,74.1-349.5,193.9-470.1
	L281.7,280.1z"/>
<path class="st3" d="M901.7,900H156.4c-22.2-64.2,9-131.6,9-203.4c0-174.2-21.8-331.7,93.1-445.1C371.4,140.1,526.6,71.3,697.8,71.3
	c71,0,140.3,11.9,204,33.7V900z"/>
<path class="st4" d="M106.8,900c-22.2-64.2-34.3-131.6-34.3-203.4c0-172.6,70-329,183.1-442.1L901.7,900l0,0H106.8z"/>
<path class="st5" d="M79.4,789.4c18.6-2.9,37.1-5.8,55.7-8.8c32.9-5.3,65.8-10.8,98.9-15.1c3.9-0.5,7.8-1,11.7-1.4
	c0.3,0,6.5-1.2,2.5-0.3c1.2-0.3,2.3-0.5,3.5-0.7c6.4-1.3,12.9-2.3,19.4-3.1c11.6-1.5,24.8-2,35.8,2.6c6.9,2.9,12.1,7.9,12.1,15.9
	c0,8-5.2,13.1-12.1,15.9c-8.5,3.4-17,6.5-25.6,9.4c-0.1,0.6-0.2,1.2-0.3,1.7c3.5,3.5,5,8.7,4.5,13.7c2.1,2,3.6,4.5,4.4,7.4
	c1.8,6.5-0.9,15.7-7.6,18.6c-9.3,4.1-18.7,7.6-28.3,10.6c-1.4,5.5-6,9.7-11.7,12c-1,0.4-2,0.8-3,1.2c3.7,3.2,6.2,8.1,6.2,12.9
	c0,9.6-7.5,17.4-16.5,18.1c-2.6,0.2-4.8-0.2-6.9,0H106.8C94.4,864.3,85.2,827,79.4,789.4z"/>
<radialGradient id="SVGID_1_" cx="-9.6464" cy="147.5589" r="1180.9525" gradientTransform="matrix(-1 0 0 1 868.7173 0)" gradientUnits="userSpaceOnUse">
	<stop  offset="0" style="stop-color:#FFFFFF"/>
	<stop  offset="1" style="stop-color:#EDF2F2"/>
</radialGradient>
<path class="st6" d="M901.7,900H146.3c-23.8-63.8-36.8-134.3-36.8-206.4c0-323.8,262.5-586.3,586.3-586.3c72.1,0,142.2,13,206,36.8
	V900z"/>
<g>
	<g class="st7">
		<path class="st8" d="M763.8,846.4l-55.9-90.5l-1.8,0.3c-1.2,0.2-2.5,0.3-3.8,0.4l-2.6,0.2l0.6,60.2l-22.8-0.3l2.4-62.9l-1.9-0.7
			c-12.2-4.6-22.5-13.3-29.1-24.6l-0.8-1.3l-167-7.8v10.2L333.4,711L481,694.2v8.5l160.2-7.5l0.3-2.4c1.2-9,4.5-17.8,9.8-25.3
			l1.1-1.5L534.8,475.8l-4.4,2.2l-6.7-12.7l-2.7,3.4c-11.5,14.3-18.4,21.7-20.2,22.6c-0.6,0.3-3.2,1.4-11.3,1.4
			c-3.2,0-5.7-0.2-5.7-0.2l-1.6-0.1l-0.9,1.4c-1.1,1.6-1,3.9,0.8,17.7c0.8,6,1.6,12.3,1.6,15.8c0.1,2.4,0.2,5.3,0.3,8.3
			c0.4,10.4,1,24.3-0.5,32.9l-12.3-4.3l1.7,5.4c3.5,11.1,5.9,19.2,7.2,24.2c0.5,1.9,1.8,8.8,1.8,10.2c0,2.3-3.5,24.1-9.2,56.8
			l-1.1,6.5l2.5-1.7c-0.3,1-0.7,2-1,2.4c-0.1,0.1-0.3,0.2-0.8,0.4l-3.9,1.6l3,3c2.3,2.3,3.4,3,4.1,3.2c3.5,1.3,9.2,1.5,12.3,1.5
			c1.2,0,2.4,0,3.5-0.1c0,0.2,0.1,0.3,0.1,0.5c-1,1.2-3.6,3.7-8.4,4.9c-1.5,0.4-3.9,0.6-6.9,0.6c-4.2,0-8.1-0.4-8.1-0.4l-0.8-0.1
			l-0.7,0.3c-2.1,1-6,2.5-7.4,2.6c-0.2,0-0.3,0-0.5,0c-0.9,0-1.4-0.1-1.8-0.3l0.5-13.9l-2.4-0.2c2.4-25.4,5.9-61.6,6.2-63.5
			c1-5.2-1.5-9.9-5.7-17.6c-3-5.6-6.8-12.6-10.9-22.6c-0.6-1.5-2-2.3-4.2-2.3c-0.3,0-0.7,0-1,0c-0.2,0-0.5,0-0.7,0c0,0-0.1,0-0.1,0
			l-2.8-0.9l-0.7,3c-4.5,18.9-12,49.8-13.1,52.3c-3.6,8-23.7,38.8-32.1,50.5c-0.7,1-0.8,2.1-0.2,3.4c-0.1,0.1-0.1,0.1-0.2,0.2
			l-0.3,0.2l-0.2,0.3c-1.2,1.6-1.5,1.9-1.5,1.9c-0.7,0.8-2.4,1.6-3.6,1.9c-0.3,0-0.8,0.1-1.6,0.1l-2.7,0.1l-0.1,2.7
			c-0.2,3.9,0.1,5.1,0.1,5.4c0.3,1.5,1.3,3,2.4,4.5c0.5,0.7,1.2,1.8,1.5,2.3c0,0.1,0,0.1,0,0.2l-0.1,0.3v0.2c0,0.2-0.1,0.4-0.2,0.6
			c0,0,0,0,0,0c-1.6,0-3.8,0.1-5.9,0.1l-0.3,0c-2.4,0-3.5-0.1-4.1-0.1c-2.5-0.2-5.5-2.4-6.5-3.8c-0.1-0.6,0-2,0.2-3.2l0.1-0.5
			l-0.1-0.5c-0.4-1.8-0.8-4.3-0.8-4.8c0-0.1,0-0.1,0-0.1l0-0.1c0-0.1,0.1-0.2,0.1-0.3l0.1-0.1c0.1-0.1,0.1-0.3,0.2-0.4l0.1-0.2
			c0.6-1.1,1.7-2.6,3.1-4.1l1.3-1.5l-1-1.8c-0.9-1.7,0-4.5,0.4-5.5c2.1-3.4,29.1-46.6,32.3-55.3c0.8-2.1,5.1-37.5,6-51.3
			c0.4-5.9,1-11.2,1.9-15.7l0.4-1.9l-1.6-1c-8.3-5.4-9.8-8.4-10.1-9.3c3-4.7,19-29.8,22-42.1c1.8-7.2,3-22.5,2.5-30.5
			c-0.1-1.6-0.5-3.6-0.9-5.8c-0.5-2.7-1.1-5.7-1-7.3c0.9-11.1,10-40.5,13.4-46.2c1.9-1.7,15-9,27-15.4c0.6,0,1.7,0.3,2.7,1.2
			l1.3,1.1l10.7-4.2l-1.3-2.5l3.4-2.8l-0.7-1.4l2.1,2.6l2.2-3.2c0.4-0.7,1.1-1.5,1.7-2.3l12.7,6.2c0.3,2.5,0.5,8,4,10.5
			c0.9,0,6.6-2,0-0.5l-9.5,0.5l32.5,44.6l24.2,31l-4.9,3.4L664.7,654l2.3-1.5c4.6-3,9.6-5.2,14.8-6.8l2-0.6l11.7-309.4l3,307.6
			l2.6,0.2c25.1,1.5,46.5,19.6,51.9,44.2l0.5,2.3l67.1-3.1v48.4l-75.9-3.5l-0.9,1.3c-3.8,5.4-8.5,10-14,13.7l-2.3,1.6l56.5,84.8
			L763.8,846.4z M514.6,458.1l3.9-2.9l-36.1-64.8l-8.2,3.2l-0.1-0.1l-6,2.4l0.1,2c0,0.7,0,1.3,0,1.7c-23.3,11.8-23.6,13-23.9,14.5
			c-0.2,0.8-1,3-1.8,5.3c-3.9,11.1-5.5,16.6-4.1,19.4c0.7,1.4,1.9,2.8,3.7,4.2l0.6,0.5l8.4,0.9l0.3-2.9c0.4-5,1.3-12.2,2.3-15.9
			c1.9-6.9,6.4-14.7,13.6-15.8c0.9-0.1,1.8-0.2,2.7-0.2c7,0,13.8,3.7,17.4,7c6,5.2,6,11.4,5.4,12.9c-0.1,0.2-0.2,0.5-0.3,0.8
			c0,0.1-0.1,0.4-0.1,0.4c0,0-0.4,0.3-1.8,0.3l-1.8,0.1l-0.7,1.7c-0.6,1.3-1.1,2.6-1.2,4.1c-0.1,1,0.2,2.1,0.5,3.4
			c0.1,0.5,0.3,1.2,0.4,1.8c-0.1,0.1-0.3,0.1-0.4,0.2c-0.8,0.4-1.7,0.8-2.4,1.6c-0.8,0.8-1.2,2-1.6,2.9c-0.2,0.4-0.4,1-0.5,1.2
			c-0.2,0.3-0.4,0.6-0.5,0.9c-0.4,0.2-0.9,0.6-1.5,1.3c-1.1,1.2-1,2.4-1,3c0,0.3,0,0.5-0.1,0.9c-0.1,0.3-0.2,0.4-0.2,0.5l-0.1,0.1
			c-0.2,0-0.5,0.1-1,0.1c-1.2,0-2.8-0.2-4.2-0.6l-1.6-0.4l-7,6.7l2.9,5.7l1.4,0.3c1.8,0.3,3.4,0.7,4.9,1.1c0.7,0.2,2.4,1.8,3.4,2.8
			c1.6,1.5,3.2,3,4.7,3.6c0.3,0.1,1.3,0.7,2,1.1c3.4,1.8,4.6,2.4,5.5,2.6c0.2,0,0.4,0.1,0.6,0.1c2.6,0,4.9-2.6,10.2-8.8
			c3.7-4.3,8.2-9.6,11.9-12.2L514.6,458.1z"/>
	</g>
	<path class="st9" d="M396,532.4c-0.1,0.1-0.1,0.1-0.1,0.1S395.9,532.4,396,532.4z"/>
	<path class="st9" d="M501.2,379.8c-0.8,1.1-2.2,2.1-3.5,2.5c-1.7,0.9-4,1-4.3-1.5c-0.1-0.6,0.2-1.2,0.5-1.7
		c-0.4,0.2-0.8,0.3-1.3,0.3c-1.1,0-2.1-0.9-2.6-1.9c-0.4-1,0-1.9,0.6-2.6c-1.9,0.2-3.6-1.6-2.6-3.6c0.6-1.2,2.2-2.3,3.3-3
		c1.4-0.9,3.5-1.3,4.2,0.6c0.1,0.1,0.1,0.3,0.1,0.4c0.1,0.3,0.2,0.6,0.1,1c-0.1,0.4-0.3,0.7-0.5,1c0.3-0.2,0.7-0.3,1.1-0.4
		c0.2-0.1,0.4-0.1,0.6-0.1c0,0,0.1,0,0.1,0c0.1,0,0.2,0,0.3,0c0.5,0,0.8,0.2,1.1,0.5c0.5,0.3,0.8,0.8,0.7,1.5c0,0,0,0,0,0
		c0.1,0.2,0.1,0.5,0.1,0.8c-0.1,0.6-0.4,1.2-0.8,1.7c1-0.6,2-0.9,3.1-0.4c0.2,0.1,0.4,0.2,0.5,0.4c0.6,0.4,0.9,1,0.7,2
		C502.3,378.4,501.9,379.1,501.2,379.8z"/>
	<path class="st9" d="M497.5,387c-0.5-0.5-0.5-1.2-0.2-1.7c0.3-1.7,3-3.3,4.1-4.1c1.1-0.7,2.1-1.2,3.3-0.6c1.5,0.7,0.9,2.6,0.4,3.7
		C503.7,386.9,500.1,389.6,497.5,387z"/>
</g>
<g>
	<g>
		<g>
			<g>
				<path class="st10" d="M701.8,240.4c-5.9,0-10.6-4.8-10.6-10.6v-71.6c0-5.9,4.8-10.6,10.6-10.6s10.6,4.8,10.6,10.6v71.6
					C712.5,235.7,707.7,240.4,701.8,240.4z"/>
			</g>
		</g>
		<g>
			<g>
				<path class="st10" d="M153.9,709.7c-5.9,0-10.6-4.8-10.6-10.6c0-5.9,4.8-10.6,10.6-10.6h71.6c5.9,0,10.6,4.8,10.6,10.6
					c0,5.9-4.8,10.6-10.6,10.6H153.9z"/>
			</g>
		</g>
		<g>
			<g>
				<path class="st10" d="M466.8,302.1c-3.8,0-7.4-2-9.2-5.3l-35.6-62.1c-2.9-5.1-1.2-11.6,3.9-14.5c1.6-0.9,3.4-1.4,5.3-1.4
					c3.8,0,7.4,2,9.2,5.3l35.6,62.1c2.9,5.1,1.2,11.6-3.9,14.5C470.4,301.6,468.6,302.1,466.8,302.1L466.8,302.1z"/>
			</g>
		</g>
		<g>
			<g>
				<path class="st10" d="M288.1,469.5c-1.8,0-3.7-0.5-5.3-1.4l-62.1-35.6c-5.1-2.9-6.9-9.4-3.9-14.5c1.9-3.3,5.4-5.3,9.2-5.3
					c1.8,0,3.7,0.5,5.3,1.4l62.1,35.6c2.5,1.4,4.2,3.7,5,6.4c0.7,2.7,0.4,5.6-1,8.1C295.5,467.5,291.9,469.5,288.1,469.5z"/>
			</g>
		</g>
	</g>
</g>
<g>
	<g>
		<circle class="st11" cx="648.3" cy="167.5" r="9.6"/>
		<circle class="st11" cx="594.4" cy="177.1" r="9.6"/>
		<circle class="st11" cx="539.8" cy="189.2" r="9.6"/>
		<circle class="st11" cx="486" cy="208.3" r="9.6"/>
	</g>
	<g>
		
			<ellipse transform="matrix(0.8683 -0.496 0.496 0.8683 -78.8005 227.0071)" class="st11" cx="388.1" cy="261.9" rx="9.6" ry="9.6"/>
		
			<ellipse transform="matrix(0.8682 -0.4962 0.4962 0.8682 -101.7332 210.8172)" class="st11" cx="346" cy="296.9" rx="9.6" ry="9.6"/>
		
			<ellipse transform="matrix(0.8683 -0.4961 0.4961 0.8683 -125.8166 195.2119)" class="st11" cx="304.6" cy="334.5" rx="9.6" ry="9.6"/>
		
			<ellipse transform="matrix(0.8683 -0.4961 0.4961 0.8683 -152.2083 182.422)" class="st11" cx="267.4" cy="377.8" rx="9.6" ry="9.6"/>
	</g>
	<g>
		
			<ellipse transform="matrix(0.5012 -0.8653 0.8653 0.5012 -309.5627 417.7691)" class="st11" cx="207.6" cy="477.4" rx="9.6" ry="9.6"/>
		
			<ellipse transform="matrix(0.5012 -0.8653 0.8653 0.5012 -363.4175 427.2017)" class="st11" cx="188.9" cy="528.8" rx="9.6" ry="9.6"/>
		
			<ellipse transform="matrix(0.5012 -0.8654 0.8654 0.5012 -417.9587 439.1916)" class="st11" cx="172" cy="582.1" rx="9.6" ry="9.6"/>
		
			<ellipse transform="matrix(0.5012 -0.8653 0.8653 0.5012 -471.769 458.1547)" class="st11" cx="161.5" cy="638.3" rx="9.6" ry="9.6"/>
	</g>
	<g>
		<circle class="st11" cx="760.7" cy="172.1" r="9.6"/>
		<circle class="st11" cx="814.6" cy="181.6" r="9.6"/>
		<circle class="st11" cx="869.2" cy="193.7" r="9.6"/>
	</g>
	<g>
		
			<ellipse transform="matrix(0.8653 -0.5012 0.5012 0.8653 -413.2967 212.5508)" class="st11" cx="188.9" cy="875.3" rx="9.6" ry="9.6"/>
		
			<ellipse transform="matrix(0.8654 -0.5011 0.5011 0.8654 -388.8176 196.8576)" class="st11" cx="172" cy="822.1" rx="9.6" ry="9.6"/>
		
			<ellipse transform="matrix(0.8653 -0.5012 0.5012 0.8653 -362.0952 184.0818)" class="st11" cx="161.5" cy="765.9" rx="9.6" ry="9.6"/>
	</g>
</g>
<polygon class="st12" points="795,818 553.5,455.3 558.6,451.7 467.6,335 536.1,465.7 540.7,463.5 769.9,834.4 "/>
<polygon class="st9" points="558.6,451.7 553.5,455.3 795,818 783.5,825.5 782.7,825.5 467.6,335 "/>
<g>
	<polygon class="st13" points="684.7,803.3 707.4,803.5 701.7,276.2 699.9,276.2 	"/>
	<path class="st14" d="M706.8,743.7c-2.9,0.5-5.9,0.8-9,0.8c-3.9,0-7.7-0.5-11.3-1.3l2.6-89.1c2.8-0.5,6-0.7,8.9-0.7
		c2.7,0,5.3,0.2,7.9,0.6L706.8,743.7z"/>
</g>
<g>
	<polygon class="st15" points="830.5,722.3 830.5,672 830.5,667.9 825.7,668.2 379.5,688.9 379.5,701.3 	"/>
	<polygon class="st15" points="490.9,716.9 490.9,675 334,692.9 334,697.1 	"/>
	<polygon class="st16" points="830.5,722.3 490.9,706.5 490.9,716.9 334,697.1 334,695.5 830.5,695.8 	"/>
	<path class="st17" d="M741,700.1c0,6.4-1.4,12.4-3.9,17.8l-80.2-3.7c-1.5-4.4-2.4-9.2-2.4-14.1c0-9,2.8-17.4,7.5-24.3l69-3.2
		C737.2,680,741,689.7,741,700.1z"/>
</g>
<circle class="st18" cx="697.8" cy="695.1" r="38.2"/>
<g>
	<circle class="st19" cx="697.8" cy="695.1" r="28.3"/>
	<g class="st20">
		<path class="st9" d="M697.8,666.9c15.6,0,28.3,12.7,28.3,28.3c0,15.6-12.7,28.3-28.3,28.3c-15.6,0-28.3-12.7-28.3-28.3
			C669.5,679.5,682.1,666.9,697.8,666.9 M697.8,663.9c-17.2,0-31.3,14-31.3,31.3c0,17.2,14,31.3,31.3,31.3c17.2,0,31.3-14,31.3-31.3
			C729,677.9,715,663.9,697.8,663.9L697.8,663.9z"/>
	</g>
</g>
<g>
	<g>
		<path class="st21" d="M450.1,662l-0.6,15.9c0,0,1.1,2.1,5.4,1.9c2.7-0.2,8.5-2.9,8.5-2.9s10.8,1.1,16.3-0.3
			c8-2.1,10.9-7.1,10.9-7.1s-0.6-4.3-2.1-4.2c-4.6,0.4-12.4,0.2-16.1-1.2c-1.5-0.6-4.8-4.4-4.8-4.4L450.1,662z"/>
		<g>
			<g>
				<g>
					<path class="st22" d="M454.8,676.4c2.7-0.2,8.5-2.9,8.5-2.9s10.8,1.1,16.3-0.3c6.1-1.6,9.2-4.9,10.4-6.3
						c0.4,1.2,0.6,2.6,0.6,2.6s-2.9,5-10.9,7.1c-5.5,1.4-16.3,0.3-16.3,0.3s-5.9,2.7-8.5,2.9c-4.3,0.3-5.4-1.9-5.4-1.9l0-3.2
						C449.8,675.2,451.2,676.6,454.8,676.4z"/>
				</g>
			</g>
		</g>
		<path class="st21" d="M376.9,670.5c0,0-0.3,5,0,6.6c0.4,1.9,3.6,5.2,3.9,7c0.2,1.1-1.1,4.7-1.1,4.7s-9.6,0.3-12.7,0
			c-3.6-0.3-7.7-3.2-8.9-5.5c-0.6-1.1,0-4.9,0-4.9s-1-4.6-0.8-5.8c0.3-2.8,5.5-8.1,5.5-8.1L376.9,670.5z"/>
		<g>
			<g>
				<g>
					<path class="st22" d="M357.3,672.5c0.1-0.9,0.7-2,1.4-3.1c-0.1,1.4,0.8,5.8,0.8,5.8s-0.6,3.8,0,4.8c1.3,2.3,5.3,5.2,8.9,5.5
						c2.8,0.2,10.4,0.1,12.3,0c-0.3,1.4-1,3.2-1,3.2s-9.6,0.3-12.7,0c-3.6-0.3-7.7-3.2-8.9-5.5c-0.6-1.1,0-4.9,0-4.9
						S357.1,673.8,357.3,672.5z"/>
				</g>
			</g>
		</g>
		<path class="st23" d="M479.8,560.8l-14.9-5.2c0,0-41.9-9.9-54.4-16.7c-22.3-12.1-19.5-17.5-19.5-17.5l2.9-4.2l80.9-9.7l5,40.2
			V560.8z"/>
		<path class="st12" d="M462.2,528.5c0,0,12.9,39.1,16.8,54c0.5,1.8,1.9,9.2,1.9,11.1c0,4.7-11,67-11,67s-6.5,2.3-13.1,3.8
			c-7.4,1.7-9.4,0-9.4,0s6.2-65.2,6.6-67c1.5-7.5-7-15.3-16.7-39.1c-0.4-1-3.2-0.2-4.2-0.6c0,0-11.9,50-13.5,53.5
			c-3.8,8.5-24.1,39.5-32.8,51.6c-0.4,0.5,1,1.5,0.6,2c-0.6,0.8-2.9,3.8-3.4,4.3c-1.7,1.9-5.2,2.9-5.2,2.9s-6,0.9-11.4-1.5
			c-1.6-0.7-4.4-3-5.5-4.4c-2.7-3.6,0-9,0-9s29.3-46.8,32.6-55.6c0.5-1.4,4.9-36.5,5.9-51.2c1.2-19.7,5.5-33.3,11.6-33.3
			L462.2,528.5z"/>
		<path class="st24" d="M406.4,557.9c0.3-4.2,1.8-12.5,3.1-19.5c3.8-1.1,7.8-3,10.5-4.4c1.4-0.7,4.9-3.8,6.6-6.5l12,0.4
			c0.2,3.4,0.4,17.5,2.1,18.6c0.9,0.6,3.4,0.2,4.5,0.1c-0.1-6.1-0.1-12.3-0.2-18.6l5.7,0.2c0.2,0.8,0.4,1.6,0.6,2.2
			c1.5,4.6,7.1,10.2,12.2,12.5c4.9,14.7,11.8,36.4,14.1,49.3c1.2,6.6-6.7,7.7-8.4,5.9c-6.9-7-25.3-40.9-25.3-40.9l4.3-3.3
			c0,0-7.7-0.2-11.8-0.6c-3.3-0.4-12.9-3.6-12.9-3.6l5.4,5.4c-0.9,7.5-7.4,42.5-16.5,49.7c-1.8,1.5-7.4-1.1-7.6-1.8
			C401.7,594.6,405.5,569.3,406.4,557.9z"/>
		<path class="st25" d="M455.4,377.3l17.1-6.5c0,0,1.9-5.9,2.7-7.5c0.6-1.3,4.3-5.8,4.3-5.8l9.3,18.2c0,0,2.6,0.2,7,1.7
			c3.6,1.1,2.7,4.5,2.7,4.5s-9,0.2-11.2,0c-2.1-0.2-6.2-2.3-6.2-2.3l-10.9,4.4L455.4,377.3z"/>
		<path class="st25" d="M514.1,430.6c0.2-3,5.8-12.1,5.8-12.1s2.9,0.9,2.9,4c0,1.5-1.9,10.8-1.9,10.8l7,16.5l-4.5,0.4l-4.6,2.5
			l-7.9-7.8l5.1-5.7C516,439.2,513.9,432.9,514.1,430.6z"/>
		<polygon class="st26" points="506.8,445.7 514.5,440 521.9,452.3 513.9,459.9 		"/>
		<path class="st26" d="M461.1,532.4c0,0,2.7,0.7,3.9-3.2c0.3-0.8-1.1-2.6-0.9-3.8c0.2-0.9,1.1-1.5,1.4-2.7c0.6-2.4-0.4-5.4-0.3-5.9
			c0.5-3,2.6-5.3,3.1-10.2c1.5-13.6-2.4-46.3-2.4-46.3l-17.6-8.9c0,0-30,60.1-17.6,77.4C435.3,535,461.1,532.4,461.1,532.4z"/>
		<path class="st27" d="M460.9,466c-1.5,6.5-7,45.5-23.5,74.3c0,0-10,0.8-21.3-5.3s-13.5-4-13.5-4s0.9-4.2,2-6.3
			c7-13,32.7-58.5,32.5-60.3c-0.3-2,19.8-5.8,19.8-5.8s5.8-0.5,5.5,0.3S460.9,466,460.9,466z"/>
		<path class="st26" d="M461.6,372.3l6.9-2.7c0,0,2.9-1.2,5.2,3.1c2.6,4.9,1.8,8.8,1.8,8.8l-10.8,4.4L461.6,372.3z"/>
		<path class="st12" d="M521.3,456.7c0,0-9.5-16.6-11.8-15.3c-8.2,4.6-19.4,22.2-22.3,21.7c-1-0.2-6.1-3.2-7-3.6
			c-2.3-1-6.2-6-8.7-6.6c-6.2-1.5-12.2-2.2-12.2-2.2s1.7,35.9,4.2,49.6c2.1,11.5,10.5,33.3,13.4,44.6c2.8,10.9-0.1,19.9-0.1,19.9
			s4.4-1.2,5.1-4c2.8-10.9,1.1-32.9,0.8-44.9c-0.2-8.2-4.1-30.6-3-32.2c0,0,14.2,0.9,18.8-1.6C503.2,479.6,521.3,456.7,521.3,456.7z
			"/>
		
			<linearGradient id="SVGID_2_" gradientUnits="userSpaceOnUse" x1="419.0403" y1="563.4528" x2="459.0404" y2="348.4527" gradientTransform="matrix(-1 0 0 1 868.7173 0)">
			<stop  offset="0" style="stop-color:#4F4D51"/>
			<stop  offset="1" style="stop-color:#323133"/>
		</linearGradient>
		<path class="st28" d="M456.9,439.5c-3.7-4.5-17.9-8.9-20.3-14.1c-1.5-3.3,5.4-19.7,6.2-23.2c0.3-1.4,24.1-13.4,24.1-13.4
			s0.8-3.8-0.9-10c-2.6-9.4-9.2-8.5-9.2-8.5s-27.6,14.5-29,16.7c-3.5,5.7-13.1,36.6-14.1,48.3c-0.3,3.4,1.8,10.2,2,13.6
			c0.5,7.5-0.7,22.7-2.5,30c-3.2,13.1-22.3,42.4-22.3,42.4s2.2-4.3,12.7,3.5c15.8,11.8,31.7,10.3,31.7,10.3s14.6-30.8,17.4-41.3
			c2.6-9.7,7.1-34.2,7.1-34.2S460.6,444,456.9,439.5z"/>
		<path class="st9" d="M459.9,449.9l5-1l5,10l-5,4.3l5,10.6l-7.4,19.1c0,0-2.3-17-2.7-22.7C459.6,465.2,459.9,449.9,459.9,449.9z"/>
		<g>
			<path class="st25" d="M446.8,434c0-3.2,7.6-6.1,9-9c0.7-1.3-0.7-5.5,0.7-5.9c4.7-1.5,17.1,13.7,17.5,18.5
				c0.3,4.2-16.9,17-16.9,17S446.8,440.2,446.8,434z"/>
			<path class="st29" d="M453,447.8c0,0,8.2-17.5,10.9-12.3c3.9,7.5,1.6-2,1.1-4c-0.2-0.8-1.4-4.1-3.1-5.8c-2.4-2.4-5.6-3.2-5.6-3.2
				l-11.9,16L453,447.8z"/>
			<path class="st21" d="M444,433.2c0-0.1,0-0.4,0-0.6c0.3-5,1.4-15.2,2.7-20.1c1.9-6.9,6.8-16.7,16.1-18.1
				c8.8-1.3,17.9,3.3,22.7,7.5c7.1,6.2,7.3,13.7,6.2,16.4c-0.4,1-0.2,3.4-5.2,3.4c-11.5,0-38.7,4.6-38.7,16.1"/>
			<path class="st25" d="M478.1,406.4c-2.8-0.1-4,5.6-5.9,7.7c-1.1,1.3-4.4,3.8-6.1,3.8c-2.2-0.1-1.2-6.2-4.8-7.1
				c-1.6-0.4-4.3,1.3-4.5,3.6c-0.5,4.4,1.7,8,4.3,9.6c0.4,0.3,0.9-0.3,1.4,0c1.5,1.1-0.1,4.1,2.8,7.2c3.2,3.3,5.3,15.2,9.8,14.2
				c1.1-0.3,2.5,0.6,3.6-2.3c0.7-1.9,0-2.4,0.5-3c0.8-0.8,1.2-0.7,1.9-1.5c0.1-0.1,0.2-0.7,0.3-0.9c0.8-1,1.2-3.1,2-4
				c0.7-0.8,3.1-1.3,3.5-2.3c0.5-1.4-0.9-5-0.8-6.5c0.1-2.1,2.4-5.1,2-7.2C487.3,413.7,482.1,406.6,478.1,406.4z"/>
			<g class="st20">
				<path class="st30" d="M481.7,431.6c1.1,0.5,1.9,0.4,2-0.1c0.1-0.2-2.1-1.5-2.7-1.1C480.2,430.7,481.2,431.3,481.7,431.6z"/>
			</g>
			<path class="st29" d="M477.5,444.7c-0.9,1.8-9.2,0.5-10.7-1c-1.3-1.3-5.8-5.9-5.4-17.1c0-0.5,1.1-0.6,0.4-3.3
				c-0.1-0.5,0-0.6,0.4-0.3c2.1,1.3,0.4,3.6,1.4,8.3c2,9.3,8.1,9.2,10.7,10.8C475.5,443.1,478.1,443.4,477.5,444.7z"/>
			<path class="st29" d="M463.4,416.4c0.4,1-1.9,1.9-1.9,2.7c0,1.2,1.9,2.1,1.1,2.4c-1.3,0.5-3-1-3.9-3.4c-0.9-2.3-0.5-4.6,0.8-5.1
				C460.8,412.5,462.6,414,463.4,416.4z"/>
			<g>
				<g>
					<path class="st29" d="M475,415.3c0.9-1,2.8-0.9,3.9-0.5c1.7,0.5,3.3,1.1,4,3c0.6,1.7,1.1,3.1,0.5,3.6c-2.2,1.6-5.1,0.2-6.6,0
						C476.3,421.2,472.6,417.9,475,415.3z"/>
				</g>
				<g>
					<path class="st31" d="M481.6,420.2c-1.3-2.6-4.1-1.4-5-0.7c-0.4,0.3-0.3,1.9,2.7,2.9C480.6,422.9,482.1,421.2,481.6,420.2z"/>
				</g>
				<g>
					<path class="st30" d="M481.3,421.8c-0.4,0.7-1.1,0.9-1.6,0.5c-0.5-0.4-0.6-1.2-0.2-1.9c0.4-0.7,1.1-0.9,1.6-0.5
						C481.5,420.3,481.6,421.1,481.3,421.8z"/>
				</g>
				<path class="st25" d="M476,420.1c0,0-0.1,0-0.1,0c0-0.5-0.2-0.7,0.7-1.3c1.3-0.8,3.3-1.8,5.1,0.5c0.7,1,0.4,2.4-0.4,2.6
					c-0.1,0,0.7-1.2-0.1-1.7c-2.3-1.3-3.6-0.4-4.7-0.2c0,0,0,0,0,0c1.3,0.8,2.5,1.7,3.2,3c0.3,0.6-0.5,1.1-0.9,0.6
					c-0.1,0-0.2-0.1-0.3-0.2c-0.2-0.2-0.3-0.4-0.5-0.6c-0.5-0.4-1-0.8-1.5-1.1c-0.2-0.2-0.3-0.4-0.2-0.6c-0.1-0.1-0.2-0.1-0.3-0.2
					C475.6,420.8,475.7,420.3,476,420.1z"/>
				<g>
					<path class="st30" d="M482.9,415.9c-4.9-5-7.6-1.7-7.6-1.7c2.5,0.5,3.5,1,5.3,2.8c1.6,1.4,1.8,3.3,2.4,3.7
						C483.9,421,485.8,418.9,482.9,415.9z"/>
				</g>
			</g>
			<path class="st29" d="M479.7,431.4c-0.3-0.3-0.4-1.1-0.3-1.6c0.1-0.4,0.3-0.8,0.6-1.1c0.2-0.2,0.5-0.4,0.8-0.5
				c0.2-0.1,0.7-0.1,0.6,0.3c-0.1,0.2-0.6,0.4-0.7,0.6c-0.2,0.2-0.4,0.4-0.6,0.7c-0.3,0.5-0.3,1-0.3,1.5
				C479.8,431.4,479.8,431.4,479.7,431.4L479.7,431.4z"/>
			<polygon class="st29" points="470.8,443.6 458.6,455.4 456.1,450 468.2,442.3 			"/>
		</g>
		<path class="st32" d="M444.4,429.1l-5.2-0.5l3.7,14.9l6.7,2.9l-6.4,1.7l10.4,25.7l2.3,6.4c0,0,3.7-13.1,3.9-19.1
			c0.1-4-2.1-8.7-4.3-13.8C449.6,433.6,444.4,429.1,444.4,429.1z"/>
		<path class="st12" d="M472.7,652.6c1.9-0.9-0.2,6.6-1.7,8c-2.3,2.1-16.2,4.2-16.2,4.2l1-6.5C455.9,658.4,470.1,653.7,472.7,652.6z
			"/>
		<path class="st23" d="M365.3,658.9c0,0,5.9,7.9,11.6,9.1c9.3,2,10.6-3.1,10.6-3.1s-4.5,3-9.2,1.5
			C373.3,664.7,368.1,662,365.3,658.9z"/>
		<path class="st23" d="M473.5,652.5c0.3,2.6-1.3,2.6-9.3,4.6c-7.3,1.8-11.4,1.3-11.4,1.3s14.9-3.8,19.1-7
			C472.3,651.1,473.4,652,473.5,652.5z"/>
		<polygon class="st33" points="432.6,500.4 432.6,505.5 410,508.1 410,504.2 		"/>
	</g>
	<path class="st25" d="M484.3,358c0.6-1.2,2.2-2.3,3.3-3c1.4-0.9,3.5-1.3,4.3,0.6c0.1,0.1,0.1,0.3,0.1,0.4c0.1,0.3,0.2,0.6,0.1,1
		c-0.1,0.4-0.3,0.7-0.5,1.1c0.4-0.2,0.7-0.4,1.1-0.4c0.2-0.1,0.4-0.1,0.6-0.1c0,0,0.1,0,0.1,0c0.1,0,0.2,0,0.3,0
		c0.5,0,0.8,0.2,1.1,0.5c0.5,0.3,0.8,0.9,0.7,1.5c0,0,0,0,0,0c0.1,0.2,0.1,0.5,0.1,0.8c-0.1,0.6-0.4,1.2-0.8,1.7
		c1-0.6,2.1-0.9,3.1-0.4c0.2,0.1,0.4,0.2,0.5,0.4c0.6,0.4,0.9,1,0.7,2c-0.2,0.9-0.7,1.7-1.3,2.3c-0.9,1.1-2.2,2.1-3.5,2.6
		c-1.8,0.9-4.1,1-4.4-1.5c-0.1-0.6,0.2-1.2,0.5-1.7c-0.4,0.2-0.9,0.3-1.4,0.3c-1.1,0-2.2-0.9-2.6-1.9c-0.4-1,0-1.9,0.6-2.6
		C485,361.9,483.3,360,484.3,358z"/>
	<path class="st25" d="M493.7,372.2c0.3-1.7,3-3.4,4.2-4.1c1.1-0.7,2.1-1.2,3.4-0.6c1.5,0.7,0.9,2.7,0.4,3.7c-1.4,2.6-5,5.4-7.7,2.7
		C493.4,373.3,493.4,372.7,493.7,372.2z"/>
</g>
<path class="st29" d="M475.9,433.9c2,0.9,5.8,2.3,6,2.8c0,0-0.5,1-0.5,1c0-0.1-3.8-2.2-5.8-3.1C475,434.3,475.3,433.7,475.9,433.9z"
	/>
<path class="st21" d="M469.1,395.9c7.1,1,16.6,2.9,21.8,8.8c5.1,5.7,2.8,9.8,2.8,9.8s-2.1-5.8-6.1-6.8
	C483.6,406.7,469.1,395.9,469.1,395.9z"/>
<g class="st20">
	<path class="st23" d="M475.4,468.5C475.4,468.5,475.4,468.5,475.4,468.5C475.4,468.5,475.4,468.5,475.4,468.5z"/>
	<path class="st23" d="M479.1,485c-1.2-9.7-3.5-15.8-3.7-16.4c0.4,1,5.7,14,19,14.7c0.1,0,0.1,0,0.2,0c-6,1-14.8,0.4-14.8,0.4
		c-0.3,0.5-0.2,2.7,0.1,5.8C479.6,488.1,479.3,486.7,479.1,485z"/>
</g>
<path class="st34" d="M435.3,535.1c0,0-15.2,0.6-31.7-10.3c-13.2-8.7-11.8-1.5-11.8-1.5c1,3.5,4.5,7.3,10.7,10.5"/>
<path class="st17" d="M366.9,660.4c-3-4.6,19.8-35.5,29.5-36.2c9.1-0.6,19.6-6.8,23.6-13.9c-0.2,0.5-0.3,0.8-0.4,1
	c-3.8,8.5-24.1,39.5-32.8,51.6c-0.4,0.5,1,1.5,0.6,2C380,670.2,369.1,663.9,366.9,660.4z"/>
<path class="st35" d="M420.2,88.7C504.7,50,598.7,28.4,697.8,28.4c70.8,0,140,11,204,31.5V105c-63.6-21.8-132.9-33.7-204-33.7
	c-90.8,0-177.1,19.4-254.9,54.2L420.2,88.7z"/>
<path class="st36" d="M695.8,107.8c72.1,0,142.2,13,206,36.8v13.6c-62.6-23.4-131.5-36.2-202.2-36.2
	c-317.9,0-575.7,257.7-575.7,575.7c0,70.8,12.8,139.5,36.1,202.2h741.8l0,0H146.3c-23.8-63.8-36.8-133.8-36.8-205.9
	C109.5,370.3,372,107.8,695.8,107.8z"/>
<path class="st37" d="M682.8,676.8c4.1-3.3,9.3-5.4,15-5.4c13.1,0,23.6,10.6,23.6,23.6c0,9.6-5.8,17.9-14.1,21.6L682.8,676.8z"/>
<path class="st38" d="M146.3,900c-23.8-63.8-36.8-134.3-36.8-206.4c0-323.8,262.5-586.3,586.3-586.3c72.1,0,142.2,13,206,36.8"/>
<path class="st5" d="M742.7,29.9c-0.2,14.3-0.6,28.7-1.1,43c-14.5-1-29.1-1.5-43.9-1.5c-11.6,0-23.2,0.3-34.7,1
	c-1.4-14.3-2-28.6-2-42.9c12.1-0.7,24.4-1,36.7-1C712.9,28.4,727.8,28.9,742.7,29.9z"/>
<path class="st30" d="M476.4,418.9c2,0.1,6-0.4,6.3,2.5c0.1,0.6-0.9,0.6-1,0c-0.2-1.9-4-1.4-5.3-1.5
	C475.7,419.8,475.7,418.8,476.4,418.9z"/>
</svg>
